# xmcd
#
# Track frame offsets:
#	150
#	14575
#	25864
#	35515
#	46020
#	56014
#	67769
#	80070
#	89393
#	100804
#	113334
#	123373
#	136258
#	147682
#	161520
#	172121
#
# Disc length: 2453 seconds
#
# Revision: 0
# Processed by: cddbd v1.5.2PL0 Copyright (c) Steve Scherf et al.
# Submitted via: dBpowerAMP V4.0
#
DISCID=d2099310
DTITLE=AAvv - Country Classics vol.1
DYEAR=2006
DGENRE=Country
TTITLE0=Jeannie C Riley - Harper Valley P T A
TTITLE1=Patsy Cline - Crazy dreams
TTITLE2=Willie Nelson - Let's pretend we're strangers
TTITLE3=Waylon Jennings - Burning memories
TTITLE4=Johnny Cash - Get Rhytm
TTITLE5=Gene Autry - Back in the saddle again
TTITLE6=Frankie Laine - High noon
TTITLE7=Dave Dudley - Six days on the road
TTITLE8=Bill Monroe and His Bluegrass boys - Orange blossom special
TTITLE9=Hank Williams - Honky tonkin'
TTITLE10=Leroy Van Dyke - Walk on by
TTITLE11=Porter wagoner - Satisfied mind
TTITLE12=Kenny Rogers - Me and Bobby McGee
TTITLE13=Jimmie Rodgers - My old pal
TTITLE14=Freddy Fender - A man can cry
TTITLE15=Bob Wills and Texas Playboys - Take me back to Tulsa
EXTD=
EXTT0=
EXTT1=
EXTT2=
EXTT3=
EXTT4=
EXTT5=
EXTT6=
EXTT7=
EXTT8=
EXTT9=
EXTT10=
EXTT11=
EXTT12=
EXTT13=
EXTT14=
EXTT15=
PLAYORDER=
